<svg xmlns="http://www.w3.org/2000/svg" viewBox="0 0 729 414" width="729" height="414" shape-rendering="crispEdges"><style>.t{font-family:ui-monospace, SFMono-Regular, Menlo, Monaco, Consolas, "Liberation Mono", "Courier New", monospace;font-size:18px;dominant-baseline:text-before-edge;white-space:pre;font-variant-ligatures:none;font-kerning:none;font-feature-settings:"liga" 0,"calt" 0;letter-spacing:0}</style><rect x="0" y="0" width="729" height="414" fill="rgb(25,32,54)"/><text class="t" x="9" y="18" fill="rgb(205,213,235)" textLength="711" lengthAdjust="spacing" opacity="0.75" xml:space="preserve">Canvas draws directly into the CellBuffer during render via a Painter callback.</text><rect x="9" y="72" width="396" height="18" fill="rgb(18,26,48)"/><text class="t" x="9" y="72" fill="rgb(158,199,252)" textLength="396" lengthAdjust="spacing" xml:space="preserve">┌──────────────────────────────────────────┐</text><rect x="9" y="90" width="9" height="18" fill="rgb(18,26,48)"/><text class="t" x="9" y="90" fill="rgb(158,199,252)" textLength="9" lengthAdjust="spacing" xml:space="preserve">│</text><rect x="18" y="90" width="378" height="18" fill="rgb(18,26,48)"/><rect x="396" y="90" width="9" height="18" fill="rgb(18,26,48)"/><text class="t" x="396" y="90" fill="rgb(158,199,252)" textLength="9" lengthAdjust="spacing" xml:space="preserve">│</text><rect x="9" y="108" width="9" height="18" fill="rgb(18,26,48)"/><text class="t" x="9" y="108" fill="rgb(158,199,252)" textLength="9" lengthAdjust="spacing" xml:space="preserve">│</text><rect x="18" y="108" width="9" height="18" fill="rgb(18,26,48)"/><rect x="27" y="108" width="9" height="18" fill="rgb(18,26,48)"/><text class="t" x="27" y="108" fill="rgb(228,159,39)" textLength="9" lengthAdjust="spacing" xml:space="preserve">█</text><rect x="36" y="108" width="9" height="18" fill="rgb(18,26,48)"/><rect x="45" y="108" width="90" height="18" fill="rgb(18,26,48)"/><text class="t" x="45" y="108" fill="rgb(228,159,39)" textLength="90" lengthAdjust="spacing" xml:space="preserve">==========</text><rect x="135" y="108" width="261" height="18" fill="rgb(18,26,48)"/><rect x="396" y="108" width="9" height="18" fill="rgb(18,26,48)"/><text class="t" x="396" y="108" fill="rgb(158,199,252)" textLength="9" lengthAdjust="spacing" xml:space="preserve">│</text><rect x="9" y="126" width="9" height="18" fill="rgb(18,26,48)"/><text class="t" x="9" y="126" fill="rgb(158,199,252)" textLength="9" lengthAdjust="spacing" xml:space="preserve">│</text><rect x="18" y="126" width="9" height="18" fill="rgb(18,26,48)"/><rect x="27" y="126" width="9" height="18" fill="rgb(18,26,48)"/><text class="t" x="27" y="126" fill="rgb(228,159,39)" textLength="9" lengthAdjust="spacing" xml:space="preserve">█</text><rect x="36" y="126" width="360" height="18" fill="rgb(18,26,48)"/><rect x="396" y="126" width="9" height="18" fill="rgb(18,26,48)"/><text class="t" x="396" y="126" fill="rgb(158,199,252)" textLength="9" lengthAdjust="spacing" xml:space="preserve">│</text><rect x="9" y="144" width="9" height="18" fill="rgb(18,26,48)"/><text class="t" x="9" y="144" fill="rgb(158,199,252)" textLength="9" lengthAdjust="spacing" xml:space="preserve">│</text><rect x="18" y="144" width="9" height="18" fill="rgb(18,26,48)"/><rect x="27" y="144" width="9" height="18" fill="rgb(18,26,48)"/><text class="t" x="27" y="144" fill="rgb(228,159,39)" textLength="9" lengthAdjust="spacing" xml:space="preserve">█</text><rect x="36" y="144" width="360" height="18" fill="rgb(18,26,48)"/><rect x="396" y="144" width="9" height="18" fill="rgb(18,26,48)"/><text class="t" x="396" y="144" fill="rgb(158,199,252)" textLength="9" lengthAdjust="spacing" xml:space="preserve">│</text><rect x="9" y="162" width="9" height="18" fill="rgb(18,26,48)"/><text class="t" x="9" y="162" fill="rgb(158,199,252)" textLength="9" lengthAdjust="spacing" xml:space="preserve">│</text><rect x="18" y="162" width="9" height="18" fill="rgb(18,26,48)"/><rect x="27" y="162" width="9" height="18" fill="rgb(18,26,48)"/><text class="t" x="27" y="162" fill="rgb(228,159,39)" textLength="9" lengthAdjust="spacing" xml:space="preserve">█</text><rect x="36" y="162" width="234" height="18" fill="rgb(18,26,48)"/><rect x="270" y="162" width="27" height="18" fill="rgb(18,26,48)"/><text class="t" x="270" y="162" fill="rgb(228,159,39)" textLength="27" lengthAdjust="spacing" xml:space="preserve">ooo</text><rect x="297" y="162" width="99" height="18" fill="rgb(18,26,48)"/><rect x="396" y="162" width="9" height="18" fill="rgb(18,26,48)"/><text class="t" x="396" y="162" fill="rgb(158,199,252)" textLength="9" lengthAdjust="spacing" xml:space="preserve">│</text><rect x="9" y="180" width="9" height="18" fill="rgb(18,26,48)"/><text class="t" x="9" y="180" fill="rgb(158,199,252)" textLength="9" lengthAdjust="spacing" xml:space="preserve">│</text><rect x="18" y="180" width="9" height="18" fill="rgb(18,26,48)"/><rect x="27" y="180" width="9" height="18" fill="rgb(18,26,48)"/><text class="t" x="27" y="180" fill="rgb(228,159,39)" textLength="9" lengthAdjust="spacing" xml:space="preserve">█</text><rect x="36" y="180" width="225" height="18" fill="rgb(18,26,48)"/><rect x="261" y="180" width="9" height="18" fill="rgb(18,26,48)"/><text class="t" x="261" y="180" fill="rgb(228,159,39)" textLength="9" lengthAdjust="spacing" xml:space="preserve">o</text><rect x="270" y="180" width="27" height="18" fill="rgb(18,26,48)"/><rect x="297" y="180" width="9" height="18" fill="rgb(18,26,48)"/><text class="t" x="297" y="180" fill="rgb(228,159,39)" textLength="9" lengthAdjust="spacing" xml:space="preserve">o</text><rect x="306" y="180" width="90" height="18" fill="rgb(18,26,48)"/><rect x="396" y="180" width="9" height="18" fill="rgb(18,26,48)"/><text class="t" x="396" y="180" fill="rgb(158,199,252)" textLength="9" lengthAdjust="spacing" xml:space="preserve">│</text><rect x="9" y="198" width="9" height="18" fill="rgb(18,26,48)"/><text class="t" x="9" y="198" fill="rgb(158,199,252)" textLength="9" lengthAdjust="spacing" xml:space="preserve">│</text><rect x="18" y="198" width="9" height="18" fill="rgb(18,26,48)"/><rect x="27" y="198" width="9" height="18" fill="rgb(18,26,48)"/><text class="t" x="27" y="198" fill="rgb(228,159,39)" textLength="9" lengthAdjust="spacing" xml:space="preserve">█</text><rect x="36" y="198" width="216" height="18" fill="rgb(18,26,48)"/><rect x="252" y="198" width="9" height="18" fill="rgb(18,26,48)"/><text class="t" x="252" y="198" fill="rgb(228,159,39)" textLength="9" lengthAdjust="spacing" xml:space="preserve">o</text><rect x="261" y="198" width="45" height="18" fill="rgb(18,26,48)"/><rect x="306" y="198" width="9" height="18" fill="rgb(18,26,48)"/><text class="t" x="306" y="198" fill="rgb(228,159,39)" textLength="9" lengthAdjust="spacing" xml:space="preserve">o</text><rect x="315" y="198" width="81" height="18" fill="rgb(18,26,48)"/><rect x="396" y="198" width="9" height="18" fill="rgb(18,26,48)"/><text class="t" x="396" y="198" fill="rgb(158,199,252)" textLength="9" lengthAdjust="spacing" xml:space="preserve">│</text><rect x="9" y="216" width="9" height="18" fill="rgb(18,26,48)"/><text class="t" x="9" y="216" fill="rgb(158,199,252)" textLength="9" lengthAdjust="spacing" xml:space="preserve">│</text><rect x="18" y="216" width="9" height="18" fill="rgb(18,26,48)"/><rect x="27" y="216" width="9" height="18" fill="rgb(18,26,48)"/><text class="t" x="27" y="216" fill="rgb(228,159,39)" textLength="9" lengthAdjust="spacing" xml:space="preserve">█</text><rect x="36" y="216" width="216" height="18" fill="rgb(18,26,48)"/><rect x="252" y="216" width="9" height="18" fill="rgb(18,26,48)"/><text class="t" x="252" y="216" fill="rgb(228,159,39)" textLength="9" lengthAdjust="spacing" xml:space="preserve">o</text><rect x="261" y="216" width="45" height="18" fill="rgb(18,26,48)"/><rect x="306" y="216" width="9" height="18" fill="rgb(18,26,48)"/><text class="t" x="306" y="216" fill="rgb(228,159,39)" textLength="9" lengthAdjust="spacing" xml:space="preserve">o</text><rect x="315" y="216" width="81" height="18" fill="rgb(18,26,48)"/><rect x="396" y="216" width="9" height="18" fill="rgb(18,26,48)"/><text class="t" x="396" y="216" fill="rgb(158,199,252)" textLength="9" lengthAdjust="spacing" xml:space="preserve">│</text><rect x="9" y="234" width="9" height="18" fill="rgb(18,26,48)"/><text class="t" x="9" y="234" fill="rgb(158,199,252)" textLength="9" lengthAdjust="spacing" xml:space="preserve">│</text><rect x="18" y="234" width="9" height="18" fill="rgb(18,26,48)"/><rect x="27" y="234" width="9" height="18" fill="rgb(18,26,48)"/><text class="t" x="27" y="234" fill="rgb(228,159,39)" textLength="9" lengthAdjust="spacing" xml:space="preserve">█</text><rect x="36" y="234" width="216" height="18" fill="rgb(18,26,48)"/><rect x="252" y="234" width="9" height="18" fill="rgb(18,26,48)"/><text class="t" x="252" y="234" fill="rgb(228,159,39)" textLength="9" lengthAdjust="spacing" xml:space="preserve">o</text><rect x="261" y="234" width="45" height="18" fill="rgb(18,26,48)"/><rect x="306" y="234" width="9" height="18" fill="rgb(18,26,48)"/><text class="t" x="306" y="234" fill="rgb(228,159,39)" textLength="9" lengthAdjust="spacing" xml:space="preserve">o</text><rect x="315" y="234" width="81" height="18" fill="rgb(18,26,48)"/><rect x="396" y="234" width="9" height="18" fill="rgb(18,26,48)"/><text class="t" x="396" y="234" fill="rgb(158,199,252)" textLength="9" lengthAdjust="spacing" xml:space="preserve">│</text><rect x="9" y="252" width="9" height="18" fill="rgb(18,26,48)"/><text class="t" x="9" y="252" fill="rgb(158,199,252)" textLength="9" lengthAdjust="spacing" xml:space="preserve">│</text><rect x="18" y="252" width="9" height="18" fill="rgb(18,26,48)"/><rect x="27" y="252" width="9" height="18" fill="rgb(18,26,48)"/><text class="t" x="27" y="252" fill="rgb(228,159,39)" textLength="9" lengthAdjust="spacing" xml:space="preserve">█</text><rect x="36" y="252" width="225" height="18" fill="rgb(18,26,48)"/><rect x="261" y="252" width="9" height="18" fill="rgb(18,26,48)"/><text class="t" x="261" y="252" fill="rgb(228,159,39)" textLength="9" lengthAdjust="spacing" xml:space="preserve">o</text><rect x="270" y="252" width="27" height="18" fill="rgb(18,26,48)"/><rect x="297" y="252" width="9" height="18" fill="rgb(18,26,48)"/><text class="t" x="297" y="252" fill="rgb(228,159,39)" textLength="9" lengthAdjust="spacing" xml:space="preserve">o</text><rect x="306" y="252" width="90" height="18" fill="rgb(18,26,48)"/><rect x="396" y="252" width="9" height="18" fill="rgb(18,26,48)"/><text class="t" x="396" y="252" fill="rgb(158,199,252)" textLength="9" lengthAdjust="spacing" xml:space="preserve">│</text><rect x="9" y="270" width="9" height="18" fill="rgb(18,26,48)"/><text class="t" x="9" y="270" fill="rgb(158,199,252)" textLength="9" lengthAdjust="spacing" xml:space="preserve">│</text><rect x="18" y="270" width="252" height="18" fill="rgb(18,26,48)"/><rect x="270" y="270" width="27" height="18" fill="rgb(18,26,48)"/><text class="t" x="270" y="270" fill="rgb(228,159,39)" textLength="27" lengthAdjust="spacing" xml:space="preserve">ooo</text><rect x="297" y="270" width="99" height="18" fill="rgb(18,26,48)"/><rect x="396" y="270" width="9" height="18" fill="rgb(18,26,48)"/><text class="t" x="396" y="270" fill="rgb(158,199,252)" textLength="9" lengthAdjust="spacing" xml:space="preserve">│</text><rect x="9" y="288" width="9" height="18" fill="rgb(18,26,48)"/><text class="t" x="9" y="288" fill="rgb(158,199,252)" textLength="9" lengthAdjust="spacing" xml:space="preserve">│</text><rect x="18" y="288" width="378" height="18" fill="rgb(18,26,48)"/><rect x="396" y="288" width="9" height="18" fill="rgb(18,26,48)"/><text class="t" x="396" y="288" fill="rgb(158,199,252)" textLength="9" lengthAdjust="spacing" xml:space="preserve">│</text><rect x="9" y="306" width="9" height="18" fill="rgb(18,26,48)"/><text class="t" x="9" y="306" fill="rgb(158,199,252)" textLength="9" lengthAdjust="spacing" xml:space="preserve">│</text><rect x="18" y="306" width="18" height="18" fill="rgb(18,26,48)"/><rect x="36" y="306" width="333" height="18" fill="rgb(18,26,48)"/><text class="t" x="36" y="306" fill="rgb(158,199,252)" textLength="333" lengthAdjust="spacing" xml:space="preserve">Custom draw ops: box/line/circle/text</text><rect x="369" y="306" width="27" height="18" fill="rgb(18,26,48)"/><rect x="396" y="306" width="9" height="18" fill="rgb(18,26,48)"/><text class="t" x="396" y="306" fill="rgb(158,199,252)" textLength="9" lengthAdjust="spacing" xml:space="preserve">│</text><rect x="9" y="324" width="9" height="18" fill="rgb(18,26,48)"/><text class="t" x="9" y="324" fill="rgb(158,199,252)" textLength="9" lengthAdjust="spacing" xml:space="preserve">│</text><rect x="18" y="324" width="378" height="18" fill="rgb(18,26,48)"/><rect x="396" y="324" width="9" height="18" fill="rgb(18,26,48)"/><text class="t" x="396" y="324" fill="rgb(158,199,252)" textLength="9" lengthAdjust="spacing" xml:space="preserve">│</text><rect x="9" y="342" width="396" height="18" fill="rgb(18,26,48)"/><text class="t" x="9" y="342" fill="rgb(158,199,252)" textLength="396" lengthAdjust="spacing" xml:space="preserve">└──────────────────────────────────────────┘</text><rect x="9" y="378" width="18" height="18" fill="rgb(74,76,86)"/><rect x="27" y="378" width="36" height="18" fill="rgb(74,76,86)"/><text class="t" x="27" y="378" fill="rgb(205,213,235)" textLength="36" lengthAdjust="spacing" font-weight="700" xml:space="preserve">Tick</text><rect x="63" y="378" width="18" height="18" fill="rgb(74,76,86)"/><text class="t" x="81" y="378" fill="rgb(205,213,235)" textLength="648" lengthAdjust="spacing" xml:space="preserve"> Tick: 0                                                                </text></svg>