<svg xmlns="http://www.w3.org/2000/svg" viewBox="0 0 918 378" width="918" height="378" shape-rendering="crispEdges"><style>.t{font-family:ui-monospace, SFMono-Regular, Menlo, Monaco, Consolas, "Liberation Mono", "Courier New", monospace;font-size:18px;dominant-baseline:text-before-edge;white-space:pre;font-variant-ligatures:none;font-kerning:none;font-feature-settings:"liga" 0,"calt" 0;letter-spacing:0}</style><rect x="0" y="0" width="918" height="378" fill="rgb(25,32,54)"/><text class="t" x="9" y="18" fill="rgb(205,213,235)" textLength="531" lengthAdjust="spacing" opacity="0.75" xml:space="preserve">Edit channels, type a hex value, or click a palette swatch.</text><text class="t" x="9" y="54" fill="rgb(189,189,191)" textLength="9" lengthAdjust="spacing" xml:space="preserve">┌</text><text class="t" x="27" y="54" fill="rgb(189,189,191)" textLength="36" lengthAdjust="spacing" font-weight="700" xml:space="preserve">RGBA</text><text class="t" x="72" y="54" fill="rgb(189,189,191)" textLength="378" lengthAdjust="spacing" xml:space="preserve">─────────────────────────────────────────┐</text><text class="t" x="468" y="54" fill="rgb(189,189,191)" textLength="9" lengthAdjust="spacing" xml:space="preserve">┌</text><text class="t" x="486" y="54" fill="rgb(189,189,191)" textLength="126" lengthAdjust="spacing" font-weight="700" xml:space="preserve">RGB (no alpha)</text><text class="t" x="621" y="54" fill="rgb(189,189,191)" textLength="288" lengthAdjust="spacing" xml:space="preserve">───────────────────────────────┐</text><text class="t" x="9" y="72" fill="rgb(189,189,191)" textLength="135" lengthAdjust="spacing" xml:space="preserve">│╭────────────╮</text><text class="t" x="144" y="72" fill="rgb(205,213,235)" textLength="36" lengthAdjust="spacing" xml:space="preserve">  R </text><text class="t" x="180" y="72" fill="rgb(94,122,229)" textLength="81" lengthAdjust="spacing" font-weight="700" xml:space="preserve">━━━━━━━━●</text><text class="t" x="261" y="72" fill="rgb(189,189,191)" textLength="153" lengthAdjust="spacing" xml:space="preserve">─────────────────</text><text class="t" x="423" y="72" fill="rgb(205,213,235)" textLength="18" lengthAdjust="spacing" opacity="0.75" xml:space="preserve">80</text><text class="t" x="441" y="72" fill="rgb(189,189,191)" textLength="9" lengthAdjust="spacing" xml:space="preserve">│</text><text class="t" x="468" y="72" fill="rgb(189,189,191)" textLength="135" lengthAdjust="spacing" xml:space="preserve">│╭────────────╮</text><text class="t" x="603" y="72" fill="rgb(205,213,235)" textLength="36" lengthAdjust="spacing" xml:space="preserve">  R </text><text class="t" x="639" y="72" fill="rgb(94,122,229)" textLength="180" lengthAdjust="spacing" font-weight="700" xml:space="preserve">━━━━━━━━━━━━━━━━━━━●</text><text class="t" x="819" y="72" fill="rgb(189,189,191)" textLength="45" lengthAdjust="spacing" xml:space="preserve">─────</text><text class="t" x="873" y="72" fill="rgb(205,213,235)" textLength="27" lengthAdjust="spacing" opacity="0.75" xml:space="preserve">202</text><text class="t" x="900" y="72" fill="rgb(189,189,191)" textLength="9" lengthAdjust="spacing" xml:space="preserve">│</text><text class="t" x="9" y="90" fill="rgb(189,189,191)" textLength="18" lengthAdjust="spacing" xml:space="preserve">││</text><rect x="27" y="90" width="9" height="18" fill="rgb(189,209,250)"/><rect x="36" y="90" width="9" height="18" fill="rgb(162,186,232)"/><rect x="45" y="90" width="9" height="18" fill="rgb(189,209,250)"/><rect x="54" y="90" width="9" height="18" fill="rgb(162,186,232)"/><rect x="63" y="90" width="9" height="18" fill="rgb(189,209,250)"/><rect x="72" y="90" width="9" height="18" fill="rgb(162,186,232)"/><rect x="81" y="90" width="9" height="18" fill="rgb(189,209,250)"/><rect x="90" y="90" width="9" height="18" fill="rgb(162,186,232)"/><rect x="99" y="90" width="9" height="18" fill="rgb(189,209,250)"/><rect x="108" y="90" width="9" height="18" fill="rgb(162,186,232)"/><rect x="117" y="90" width="9" height="18" fill="rgb(189,209,250)"/><rect x="126" y="90" width="9" height="18" fill="rgb(162,186,232)"/><text class="t" x="135" y="90" fill="rgb(189,189,191)" textLength="9" lengthAdjust="spacing" xml:space="preserve">│</text><text class="t" x="144" y="90" fill="rgb(205,213,235)" textLength="36" lengthAdjust="spacing" xml:space="preserve">  G </text><text class="t" x="180" y="90" fill="rgb(94,122,229)" textLength="135" lengthAdjust="spacing" font-weight="700" xml:space="preserve">━━━━━━━━━━━━━━●</text><text class="t" x="315" y="90" fill="rgb(189,189,191)" textLength="90" lengthAdjust="spacing" xml:space="preserve">──────────</text><text class="t" x="414" y="90" fill="rgb(205,213,235)" textLength="27" lengthAdjust="spacing" opacity="0.75" xml:space="preserve">154</text><text class="t" x="441" y="90" fill="rgb(189,189,191)" textLength="9" lengthAdjust="spacing" xml:space="preserve">│</text><text class="t" x="468" y="90" fill="rgb(189,189,191)" textLength="18" lengthAdjust="spacing" xml:space="preserve">││</text><rect x="486" y="90" width="108" height="18" fill="rgb(202,100,243)"/><text class="t" x="594" y="90" fill="rgb(189,189,191)" textLength="9" lengthAdjust="spacing" xml:space="preserve">│</text><text class="t" x="603" y="90" fill="rgb(205,213,235)" textLength="36" lengthAdjust="spacing" xml:space="preserve">  G </text><text class="t" x="639" y="90" fill="rgb(94,122,229)" textLength="90" lengthAdjust="spacing" font-weight="700" xml:space="preserve">━━━━━━━━━●</text><text class="t" x="729" y="90" fill="rgb(189,189,191)" textLength="135" lengthAdjust="spacing" xml:space="preserve">───────────────</text><text class="t" x="873" y="90" fill="rgb(205,213,235)" textLength="27" lengthAdjust="spacing" opacity="0.75" xml:space="preserve">100</text><text class="t" x="900" y="90" fill="rgb(189,189,191)" textLength="9" lengthAdjust="spacing" xml:space="preserve">│</text><text class="t" x="9" y="108" fill="rgb(189,189,191)" textLength="18" lengthAdjust="spacing" xml:space="preserve">││</text><rect x="27" y="108" width="9" height="18" fill="rgb(162,186,232)"/><rect x="36" y="108" width="9" height="18" fill="rgb(189,209,250)"/><rect x="45" y="108" width="9" height="18" fill="rgb(162,186,232)"/><rect x="54" y="108" width="9" height="18" fill="rgb(189,209,250)"/><rect x="63" y="108" width="9" height="18" fill="rgb(162,186,232)"/><rect x="72" y="108" width="9" height="18" fill="rgb(189,209,250)"/><rect x="81" y="108" width="9" height="18" fill="rgb(162,186,232)"/><rect x="90" y="108" width="9" height="18" fill="rgb(189,209,250)"/><rect x="99" y="108" width="9" height="18" fill="rgb(162,186,232)"/><rect x="108" y="108" width="9" height="18" fill="rgb(189,209,250)"/><rect x="117" y="108" width="9" height="18" fill="rgb(162,186,232)"/><rect x="126" y="108" width="9" height="18" fill="rgb(189,209,250)"/><text class="t" x="135" y="108" fill="rgb(189,189,191)" textLength="9" lengthAdjust="spacing" xml:space="preserve">│</text><text class="t" x="144" y="108" fill="rgb(205,213,235)" textLength="36" lengthAdjust="spacing" xml:space="preserve">  B </text><text class="t" x="180" y="108" fill="rgb(94,122,229)" textLength="216" lengthAdjust="spacing" font-weight="700" xml:space="preserve">━━━━━━━━━━━━━━━━━━━━━━━●</text><text class="t" x="396" y="108" fill="rgb(189,189,191)" textLength="9" lengthAdjust="spacing" xml:space="preserve">─</text><text class="t" x="414" y="108" fill="rgb(205,213,235)" textLength="27" lengthAdjust="spacing" opacity="0.75" xml:space="preserve">246</text><text class="t" x="441" y="108" fill="rgb(189,189,191)" textLength="9" lengthAdjust="spacing" xml:space="preserve">│</text><text class="t" x="468" y="108" fill="rgb(189,189,191)" textLength="18" lengthAdjust="spacing" xml:space="preserve">││</text><rect x="486" y="108" width="108" height="18" fill="rgb(202,100,243)"/><text class="t" x="594" y="108" fill="rgb(189,189,191)" textLength="9" lengthAdjust="spacing" xml:space="preserve">│</text><text class="t" x="603" y="108" fill="rgb(205,213,235)" textLength="36" lengthAdjust="spacing" xml:space="preserve">  B </text><text class="t" x="639" y="108" fill="rgb(94,122,229)" textLength="216" lengthAdjust="spacing" font-weight="700" xml:space="preserve">━━━━━━━━━━━━━━━━━━━━━━━●</text><text class="t" x="855" y="108" fill="rgb(189,189,191)" textLength="9" lengthAdjust="spacing" xml:space="preserve">─</text><text class="t" x="873" y="108" fill="rgb(205,213,235)" textLength="27" lengthAdjust="spacing" opacity="0.75" xml:space="preserve">243</text><text class="t" x="900" y="108" fill="rgb(189,189,191)" textLength="9" lengthAdjust="spacing" xml:space="preserve">│</text><text class="t" x="9" y="126" fill="rgb(189,189,191)" textLength="18" lengthAdjust="spacing" xml:space="preserve">││</text><rect x="27" y="126" width="9" height="18" fill="rgb(189,209,250)"/><rect x="36" y="126" width="9" height="18" fill="rgb(162,186,232)"/><rect x="45" y="126" width="9" height="18" fill="rgb(189,209,250)"/><rect x="54" y="126" width="9" height="18" fill="rgb(162,186,232)"/><rect x="63" y="126" width="9" height="18" fill="rgb(189,209,250)"/><rect x="72" y="126" width="9" height="18" fill="rgb(162,186,232)"/><rect x="81" y="126" width="9" height="18" fill="rgb(189,209,250)"/><rect x="90" y="126" width="9" height="18" fill="rgb(162,186,232)"/><rect x="99" y="126" width="9" height="18" fill="rgb(189,209,250)"/><rect x="108" y="126" width="9" height="18" fill="rgb(162,186,232)"/><rect x="117" y="126" width="9" height="18" fill="rgb(189,209,250)"/><rect x="126" y="126" width="9" height="18" fill="rgb(162,186,232)"/><text class="t" x="135" y="126" fill="rgb(189,189,191)" textLength="9" lengthAdjust="spacing" xml:space="preserve">│</text><text class="t" x="144" y="126" fill="rgb(205,213,235)" textLength="36" lengthAdjust="spacing" xml:space="preserve">  A </text><text class="t" x="180" y="126" fill="rgb(94,122,229)" textLength="126" lengthAdjust="spacing" font-weight="700" xml:space="preserve">━━━━━━━━━━━━━●</text><text class="t" x="306" y="126" fill="rgb(189,189,191)" textLength="99" lengthAdjust="spacing" xml:space="preserve">───────────</text><text class="t" x="414" y="126" fill="rgb(205,213,235)" textLength="27" lengthAdjust="spacing" opacity="0.75" xml:space="preserve">136</text><text class="t" x="441" y="126" fill="rgb(189,189,191)" textLength="9" lengthAdjust="spacing" xml:space="preserve">│</text><text class="t" x="468" y="126" fill="rgb(189,189,191)" textLength="18" lengthAdjust="spacing" xml:space="preserve">││</text><rect x="486" y="126" width="108" height="18" fill="rgb(202,100,243)"/><text class="t" x="594" y="126" fill="rgb(189,189,191)" textLength="9" lengthAdjust="spacing" xml:space="preserve">│</text><text class="t" x="603" y="126" fill="rgb(205,213,235)" textLength="297" lengthAdjust="spacing" xml:space="preserve">  A                              </text><text class="t" x="900" y="126" fill="rgb(189,189,191)" textLength="9" lengthAdjust="spacing" xml:space="preserve">│</text><text class="t" x="9" y="144" fill="rgb(189,189,191)" textLength="18" lengthAdjust="spacing" xml:space="preserve">││</text><rect x="27" y="144" width="9" height="18" fill="rgb(162,186,232)"/><rect x="36" y="144" width="9" height="18" fill="rgb(189,209,250)"/><rect x="45" y="144" width="9" height="18" fill="rgb(162,186,232)"/><rect x="54" y="144" width="9" height="18" fill="rgb(189,209,250)"/><rect x="63" y="144" width="9" height="18" fill="rgb(162,186,232)"/><rect x="72" y="144" width="9" height="18" fill="rgb(189,209,250)"/><rect x="81" y="144" width="9" height="18" fill="rgb(162,186,232)"/><rect x="90" y="144" width="9" height="18" fill="rgb(189,209,250)"/><rect x="99" y="144" width="9" height="18" fill="rgb(162,186,232)"/><rect x="108" y="144" width="9" height="18" fill="rgb(189,209,250)"/><rect x="117" y="144" width="9" height="18" fill="rgb(162,186,232)"/><rect x="126" y="144" width="9" height="18" fill="rgb(189,209,250)"/><text class="t" x="135" y="144" fill="rgb(189,189,191)" textLength="9" lengthAdjust="spacing" xml:space="preserve">│</text><text class="t" x="441" y="144" fill="rgb(189,189,191)" textLength="9" lengthAdjust="spacing" xml:space="preserve">│</text><text class="t" x="468" y="144" fill="rgb(189,189,191)" textLength="18" lengthAdjust="spacing" xml:space="preserve">││</text><rect x="486" y="144" width="108" height="18" fill="rgb(202,100,243)"/><text class="t" x="594" y="144" fill="rgb(189,189,191)" textLength="9" lengthAdjust="spacing" xml:space="preserve">│</text><text class="t" x="900" y="144" fill="rgb(189,189,191)" textLength="9" lengthAdjust="spacing" xml:space="preserve">│</text><text class="t" x="9" y="162" fill="rgb(189,189,191)" textLength="18" lengthAdjust="spacing" xml:space="preserve">││</text><rect x="27" y="162" width="9" height="18" fill="rgb(189,209,250)"/><rect x="36" y="162" width="9" height="18" fill="rgb(162,186,232)"/><rect x="45" y="162" width="9" height="18" fill="rgb(189,209,250)"/><rect x="54" y="162" width="9" height="18" fill="rgb(162,186,232)"/><rect x="63" y="162" width="9" height="18" fill="rgb(189,209,250)"/><rect x="72" y="162" width="9" height="18" fill="rgb(162,186,232)"/><rect x="81" y="162" width="9" height="18" fill="rgb(189,209,250)"/><rect x="90" y="162" width="9" height="18" fill="rgb(162,186,232)"/><rect x="99" y="162" width="9" height="18" fill="rgb(189,209,250)"/><rect x="108" y="162" width="9" height="18" fill="rgb(162,186,232)"/><rect x="117" y="162" width="9" height="18" fill="rgb(189,209,250)"/><rect x="126" y="162" width="9" height="18" fill="rgb(162,186,232)"/><text class="t" x="135" y="162" fill="rgb(189,189,191)" textLength="9" lengthAdjust="spacing" xml:space="preserve">│</text><text class="t" x="144" y="162" fill="rgb(205,213,235)" textLength="72" lengthAdjust="spacing" xml:space="preserve">  Hex:  </text><rect x="216" y="162" width="81" height="18" fill="rgb(34,40,58)"/><text class="t" x="216" y="162" fill="rgb(205,213,235)" textLength="81" lengthAdjust="spacing" xml:space="preserve">#509AF688</text><text class="t" x="441" y="162" fill="rgb(189,189,191)" textLength="9" lengthAdjust="spacing" xml:space="preserve">│</text><text class="t" x="468" y="162" fill="rgb(189,189,191)" textLength="18" lengthAdjust="spacing" xml:space="preserve">││</text><rect x="486" y="162" width="108" height="18" fill="rgb(202,100,243)"/><text class="t" x="594" y="162" fill="rgb(189,189,191)" textLength="9" lengthAdjust="spacing" xml:space="preserve">│</text><text class="t" x="603" y="162" fill="rgb(205,213,235)" textLength="72" lengthAdjust="spacing" xml:space="preserve">  Hex:  </text><rect x="675" y="162" width="63" height="18" fill="rgb(34,40,58)"/><text class="t" x="675" y="162" fill="rgb(205,213,235)" textLength="63" lengthAdjust="spacing" xml:space="preserve">#CA64F3</text><rect x="738" y="162" width="18" height="18" fill="rgb(30,36,56)"/><text class="t" x="900" y="162" fill="rgb(189,189,191)" textLength="9" lengthAdjust="spacing" xml:space="preserve">│</text><text class="t" x="9" y="180" fill="rgb(189,189,191)" textLength="135" lengthAdjust="spacing" xml:space="preserve">│╰────────────╯</text><text class="t" x="441" y="180" fill="rgb(189,189,191)" textLength="9" lengthAdjust="spacing" xml:space="preserve">│</text><text class="t" x="468" y="180" fill="rgb(189,189,191)" textLength="135" lengthAdjust="spacing" xml:space="preserve">│╰────────────╯</text><text class="t" x="900" y="180" fill="rgb(189,189,191)" textLength="9" lengthAdjust="spacing" xml:space="preserve">│</text><text class="t" x="9" y="198" fill="rgb(189,189,191)" textLength="9" lengthAdjust="spacing" xml:space="preserve">│</text><text class="t" x="441" y="198" fill="rgb(189,189,191)" textLength="9" lengthAdjust="spacing" xml:space="preserve">│</text><text class="t" x="468" y="198" fill="rgb(189,189,191)" textLength="9" lengthAdjust="spacing" xml:space="preserve">│</text><text class="t" x="900" y="198" fill="rgb(189,189,191)" textLength="9" lengthAdjust="spacing" xml:space="preserve">│</text><text class="t" x="9" y="216" fill="rgb(189,189,191)" textLength="9" lengthAdjust="spacing" xml:space="preserve">│</text><rect x="63" y="216" width="36" height="18" fill="rgb(43,53,84)"/><rect x="108" y="216" width="36" height="18" fill="rgb(214,83,66)"/><rect x="153" y="216" width="36" height="18" fill="rgb(67,152,90)"/><rect x="198" y="216" width="36" height="18" fill="rgb(158,128,38)"/><rect x="243" y="216" width="36" height="18" fill="rgb(94,122,229)"/><rect x="288" y="216" width="36" height="18" fill="rgb(198,68,191)"/><rect x="333" y="216" width="36" height="18" fill="rgb(41,147,163)"/><rect x="378" y="216" width="36" height="18" fill="rgb(144,159,204)"/><text class="t" x="441" y="216" fill="rgb(189,189,191)" textLength="9" lengthAdjust="spacing" xml:space="preserve">│</text><text class="t" x="468" y="216" fill="rgb(189,189,191)" textLength="9" lengthAdjust="spacing" xml:space="preserve">│</text><rect x="522" y="216" width="36" height="18" fill="rgb(43,53,84)"/><rect x="567" y="216" width="36" height="18" fill="rgb(214,83,66)"/><rect x="612" y="216" width="36" height="18" fill="rgb(67,152,90)"/><rect x="657" y="216" width="36" height="18" fill="rgb(158,128,38)"/><rect x="702" y="216" width="36" height="18" fill="rgb(94,122,229)"/><rect x="747" y="216" width="36" height="18" fill="rgb(198,68,191)"/><rect x="792" y="216" width="36" height="18" fill="rgb(41,147,163)"/><rect x="837" y="216" width="36" height="18" fill="rgb(144,159,204)"/><text class="t" x="900" y="216" fill="rgb(189,189,191)" textLength="9" lengthAdjust="spacing" xml:space="preserve">│</text><text class="t" x="9" y="234" fill="rgb(189,189,191)" textLength="9" lengthAdjust="spacing" xml:space="preserve">│</text><rect x="63" y="234" width="36" height="18" fill="rgb(43,53,84)"/><rect x="108" y="234" width="36" height="18" fill="rgb(214,83,66)"/><rect x="153" y="234" width="36" height="18" fill="rgb(67,152,90)"/><rect x="198" y="234" width="36" height="18" fill="rgb(158,128,38)"/><rect x="243" y="234" width="36" height="18" fill="rgb(94,122,229)"/><rect x="288" y="234" width="36" height="18" fill="rgb(198,68,191)"/><rect x="333" y="234" width="36" height="18" fill="rgb(41,147,163)"/><rect x="378" y="234" width="36" height="18" fill="rgb(144,159,204)"/><text class="t" x="441" y="234" fill="rgb(189,189,191)" textLength="9" lengthAdjust="spacing" xml:space="preserve">│</text><text class="t" x="468" y="234" fill="rgb(189,189,191)" textLength="9" lengthAdjust="spacing" xml:space="preserve">│</text><rect x="522" y="234" width="36" height="18" fill="rgb(43,53,84)"/><rect x="567" y="234" width="36" height="18" fill="rgb(214,83,66)"/><rect x="612" y="234" width="36" height="18" fill="rgb(67,152,90)"/><rect x="657" y="234" width="36" height="18" fill="rgb(158,128,38)"/><rect x="702" y="234" width="36" height="18" fill="rgb(94,122,229)"/><rect x="747" y="234" width="36" height="18" fill="rgb(198,68,191)"/><rect x="792" y="234" width="36" height="18" fill="rgb(41,147,163)"/><rect x="837" y="234" width="36" height="18" fill="rgb(144,159,204)"/><text class="t" x="900" y="234" fill="rgb(189,189,191)" textLength="9" lengthAdjust="spacing" xml:space="preserve">│</text><text class="t" x="9" y="252" fill="rgb(189,189,191)" textLength="9" lengthAdjust="spacing" xml:space="preserve">│</text><text class="t" x="441" y="252" fill="rgb(189,189,191)" textLength="9" lengthAdjust="spacing" xml:space="preserve">│</text><text class="t" x="468" y="252" fill="rgb(189,189,191)" textLength="9" lengthAdjust="spacing" xml:space="preserve">│</text><text class="t" x="900" y="252" fill="rgb(189,189,191)" textLength="9" lengthAdjust="spacing" xml:space="preserve">│</text><text class="t" x="9" y="270" fill="rgb(189,189,191)" textLength="9" lengthAdjust="spacing" xml:space="preserve">│</text><rect x="18" y="270" width="36" height="18" fill="rgb(205,213,235)"/><rect x="63" y="270" width="36" height="18" fill="rgb(75,89,135)"/><rect x="108" y="270" width="36" height="18" fill="rgb(233,110,93)"/><rect x="153" y="270" width="36" height="18" fill="rgb(79,176,105)"/><rect x="198" y="270" width="36" height="18" fill="rgb(182,149,46)"/><rect x="243" y="270" width="36" height="18" fill="rgb(119,147,239)"/><rect x="288" y="270" width="36" height="18" fill="rgb(218,98,210)"/><rect x="333" y="270" width="36" height="18" fill="rgb(50,170,188)"/><rect x="378" y="270" width="36" height="18" fill="rgb(192,202,229)"/><text class="t" x="441" y="270" fill="rgb(189,189,191)" textLength="9" lengthAdjust="spacing" xml:space="preserve">│</text><text class="t" x="468" y="270" fill="rgb(189,189,191)" textLength="9" lengthAdjust="spacing" xml:space="preserve">│</text><rect x="477" y="270" width="36" height="18" fill="rgb(205,213,235)"/><rect x="522" y="270" width="36" height="18" fill="rgb(75,89,135)"/><rect x="567" y="270" width="36" height="18" fill="rgb(233,110,93)"/><rect x="612" y="270" width="36" height="18" fill="rgb(79,176,105)"/><rect x="657" y="270" width="36" height="18" fill="rgb(182,149,46)"/><rect x="702" y="270" width="36" height="18" fill="rgb(119,147,239)"/><rect x="747" y="270" width="36" height="18" fill="rgb(218,98,210)"/><rect x="792" y="270" width="36" height="18" fill="rgb(50,170,188)"/><rect x="837" y="270" width="36" height="18" fill="rgb(192,202,229)"/><text class="t" x="900" y="270" fill="rgb(189,189,191)" textLength="9" lengthAdjust="spacing" xml:space="preserve">│</text><text class="t" x="9" y="288" fill="rgb(189,189,191)" textLength="9" lengthAdjust="spacing" xml:space="preserve">│</text><rect x="18" y="288" width="36" height="18" fill="rgb(205,213,235)"/><rect x="63" y="288" width="36" height="18" fill="rgb(75,89,135)"/><rect x="108" y="288" width="36" height="18" fill="rgb(233,110,93)"/><rect x="153" y="288" width="36" height="18" fill="rgb(79,176,105)"/><rect x="198" y="288" width="36" height="18" fill="rgb(182,149,46)"/><rect x="243" y="288" width="36" height="18" fill="rgb(119,147,239)"/><rect x="288" y="288" width="36" height="18" fill="rgb(218,98,210)"/><rect x="333" y="288" width="36" height="18" fill="rgb(50,170,188)"/><rect x="378" y="288" width="36" height="18" fill="rgb(192,202,229)"/><text class="t" x="441" y="288" fill="rgb(189,189,191)" textLength="9" lengthAdjust="spacing" xml:space="preserve">│</text><text class="t" x="468" y="288" fill="rgb(189,189,191)" textLength="9" lengthAdjust="spacing" xml:space="preserve">│</text><rect x="477" y="288" width="36" height="18" fill="rgb(205,213,235)"/><rect x="522" y="288" width="36" height="18" fill="rgb(75,89,135)"/><rect x="567" y="288" width="36" height="18" fill="rgb(233,110,93)"/><rect x="612" y="288" width="36" height="18" fill="rgb(79,176,105)"/><rect x="657" y="288" width="36" height="18" fill="rgb(182,149,46)"/><rect x="702" y="288" width="36" height="18" fill="rgb(119,147,239)"/><rect x="747" y="288" width="36" height="18" fill="rgb(218,98,210)"/><rect x="792" y="288" width="36" height="18" fill="rgb(50,170,188)"/><rect x="837" y="288" width="36" height="18" fill="rgb(192,202,229)"/><text class="t" x="900" y="288" fill="rgb(189,189,191)" textLength="9" lengthAdjust="spacing" xml:space="preserve">│</text><text class="t" x="9" y="306" fill="rgb(189,189,191)" textLength="441" lengthAdjust="spacing" xml:space="preserve">└───────────────────────────────────────────────┘</text><text class="t" x="468" y="306" fill="rgb(189,189,191)" textLength="441" lengthAdjust="spacing" xml:space="preserve">└───────────────────────────────────────────────┘</text><text class="t" x="9" y="342" fill="rgb(205,213,235)" textLength="900" lengthAdjust="spacing" xml:space="preserve">RGBA: #509AF688                                                                                     </text></svg>