<svg xmlns="http://www.w3.org/2000/svg" viewBox="0 0 918 756" width="918" height="756" shape-rendering="crispEdges"><style>.t{font-family:ui-monospace, SFMono-Regular, Menlo, Monaco, Consolas, "Liberation Mono", "Courier New", monospace;font-size:18px;dominant-baseline:text-before-edge;white-space:pre;font-variant-ligatures:none;font-kerning:none;font-feature-settings:"liga" 0,"calt" 0;letter-spacing:0}</style><rect x="0" y="0" width="918" height="756" fill="rgb(25,32,54)"/><text class="t" x="9" y="18" fill="rgb(205,213,235)" textLength="837" lengthAdjust="spacing" opacity="0.75" xml:space="preserve">DocumentFlow composes existing controls and keeps scrolling smooth with block virtualization.</text><rect x="9" y="72" width="18" height="18" fill="rgb(74,76,86)"/><rect x="27" y="72" width="126" height="18" fill="rgb(74,76,86)"/><text class="t" x="27" y="72" fill="rgb(205,213,235)" textLength="126" lengthAdjust="spacing" font-weight="700" xml:space="preserve">Append message</text><rect x="153" y="72" width="18" height="18" fill="rgb(74,76,86)"/><rect x="486" y="108" width="9" height="18" fill="rgb(47,79,79)"/><text class="t" x="486" y="108" fill="rgb(147,112,219)" textLength="9" lengthAdjust="spacing" xml:space="preserve">│</text><rect x="495" y="108" width="396" height="18" fill="rgb(47,79,79)"/><rect x="891" y="108" width="9" height="18" fill="rgb(47,79,79)"/><text class="t" x="891" y="108" fill="rgb(147,112,219)" textLength="9" lengthAdjust="spacing" xml:space="preserve">│</text><text class="t" x="900" y="108" fill="rgb(189,189,191)" textLength="9" lengthAdjust="spacing" font-weight="700" xml:space="preserve">█</text><text class="t" x="9" y="126" fill="rgb(205,213,235)" textLength="477" lengthAdjust="spacing" xml:space="preserve"> DocumentFlow virtualizes by block, so only          </text><rect x="486" y="126" width="9" height="18" fill="rgb(47,79,79)"/><text class="t" x="486" y="126" fill="rgb(147,112,219)" textLength="9" lengthAdjust="spacing" xml:space="preserve">│</text><rect x="495" y="126" width="396" height="18" fill="rgb(47,79,79)"/><rect x="891" y="126" width="9" height="18" fill="rgb(47,79,79)"/><text class="t" x="891" y="126" fill="rgb(147,112,219)" textLength="9" lengthAdjust="spacing" xml:space="preserve">│</text><text class="t" x="900" y="126" fill="rgb(189,189,191)" textLength="9" lengthAdjust="spacing" font-weight="700" xml:space="preserve">█</text><text class="t" x="9" y="144" fill="rgb(205,213,235)" textLength="477" lengthAdjust="spacing" xml:space="preserve"> visible document blocks are attached and arranged.  </text><rect x="486" y="144" width="414" height="18" fill="rgb(47,79,79)"/><text class="t" x="486" y="144" fill="rgb(147,112,219)" textLength="414" lengthAdjust="spacing" xml:space="preserve">└────────────────────────────────────────────┘</text><text class="t" x="900" y="144" fill="rgb(189,189,191)" textLength="9" lengthAdjust="spacing" font-weight="700" xml:space="preserve">█</text><text class="t" x="900" y="162" fill="rgb(189,189,191)" textLength="9" lengthAdjust="spacing" font-weight="700" xml:space="preserve">█</text><rect x="9" y="180" width="486" height="18" fill="rgb(0,128,128)"/><text class="t" x="9" y="180" fill="rgb(106,90,205)" textLength="486" lengthAdjust="spacing" xml:space="preserve">┌This is useful for chat, docs viewers, and──────────┐</text><text class="t" x="900" y="180" fill="rgb(189,189,191)" textLength="9" lengthAdjust="spacing" font-weight="700" xml:space="preserve">█</text><rect x="9" y="198" width="9" height="18" fill="rgb(0,128,128)"/><text class="t" x="9" y="198" fill="rgb(106,90,205)" textLength="9" lengthAdjust="spacing" xml:space="preserve">│</text><rect x="18" y="198" width="468" height="18" fill="rgb(0,128,128)"/><text class="t" x="18" y="198" fill="rgb(205,213,235)" textLength="468" lengthAdjust="spacing" xml:space="preserve">streaming assistant transcripts.                    </text><rect x="486" y="198" width="9" height="18" fill="rgb(0,128,128)"/><text class="t" x="486" y="198" fill="rgb(106,90,205)" textLength="9" lengthAdjust="spacing" xml:space="preserve">│</text><text class="t" x="900" y="198" fill="rgb(189,189,191)" textLength="9" lengthAdjust="spacing" font-weight="700" xml:space="preserve">█</text><rect x="9" y="216" width="9" height="18" fill="rgb(0,128,128)"/><text class="t" x="9" y="216" fill="rgb(106,90,205)" textLength="9" lengthAdjust="spacing" xml:space="preserve">│</text><rect x="18" y="216" width="468" height="18" fill="rgb(0,128,128)"/><rect x="486" y="216" width="9" height="18" fill="rgb(0,128,128)"/><text class="t" x="486" y="216" fill="rgb(106,90,205)" textLength="9" lengthAdjust="spacing" xml:space="preserve">│</text><text class="t" x="900" y="216" fill="rgb(189,189,191)" textLength="9" lengthAdjust="spacing" font-weight="700" xml:space="preserve">█</text><rect x="9" y="234" width="9" height="18" fill="rgb(0,128,128)"/><text class="t" x="9" y="234" fill="rgb(106,90,205)" textLength="9" lengthAdjust="spacing" xml:space="preserve">│</text><rect x="18" y="234" width="468" height="18" fill="rgb(0,128,128)"/><rect x="486" y="234" width="9" height="18" fill="rgb(0,128,128)"/><text class="t" x="486" y="234" fill="rgb(106,90,205)" textLength="9" lengthAdjust="spacing" xml:space="preserve">│</text><text class="t" x="900" y="234" fill="rgb(189,189,191)" textLength="9" lengthAdjust="spacing" font-weight="700" xml:space="preserve">█</text><rect x="9" y="252" width="9" height="18" fill="rgb(0,128,128)"/><text class="t" x="9" y="252" fill="rgb(106,90,205)" textLength="9" lengthAdjust="spacing" xml:space="preserve">│</text><rect x="18" y="252" width="468" height="18" fill="rgb(0,128,128)"/><rect x="486" y="252" width="9" height="18" fill="rgb(0,128,128)"/><text class="t" x="486" y="252" fill="rgb(106,90,205)" textLength="9" lengthAdjust="spacing" xml:space="preserve">│</text><text class="t" x="900" y="252" fill="rgb(189,189,191)" textLength="9" lengthAdjust="spacing" font-weight="700" xml:space="preserve">█</text><rect x="9" y="270" width="9" height="18" fill="rgb(0,128,128)"/><text class="t" x="9" y="270" fill="rgb(106,90,205)" textLength="9" lengthAdjust="spacing" xml:space="preserve">│</text><rect x="18" y="270" width="468" height="18" fill="rgb(0,128,128)"/><rect x="486" y="270" width="9" height="18" fill="rgb(0,128,128)"/><text class="t" x="486" y="270" fill="rgb(106,90,205)" textLength="9" lengthAdjust="spacing" xml:space="preserve">│</text><text class="t" x="900" y="270" fill="rgb(189,189,191)" textLength="9" lengthAdjust="spacing" font-weight="700" xml:space="preserve">█</text><rect x="9" y="288" width="9" height="18" fill="rgb(0,128,128)"/><text class="t" x="9" y="288" fill="rgb(106,90,205)" textLength="9" lengthAdjust="spacing" xml:space="preserve">│</text><rect x="18" y="288" width="468" height="18" fill="rgb(0,128,128)"/><rect x="486" y="288" width="9" height="18" fill="rgb(0,128,128)"/><text class="t" x="486" y="288" fill="rgb(106,90,205)" textLength="9" lengthAdjust="spacing" xml:space="preserve">│</text><text class="t" x="495" y="288" fill="rgb(205,213,235)" textLength="405" lengthAdjust="spacing" xml:space="preserve">Right aligned bubble                         </text><text class="t" x="900" y="288" fill="rgb(189,189,191)" textLength="9" lengthAdjust="spacing" font-weight="700" xml:space="preserve">█</text><rect x="9" y="306" width="9" height="18" fill="rgb(0,128,128)"/><text class="t" x="9" y="306" fill="rgb(106,90,205)" textLength="9" lengthAdjust="spacing" xml:space="preserve">│</text><rect x="18" y="306" width="468" height="18" fill="rgb(0,128,128)"/><rect x="486" y="306" width="9" height="18" fill="rgb(0,128,128)"/><text class="t" x="486" y="306" fill="rgb(106,90,205)" textLength="9" lengthAdjust="spacing" xml:space="preserve">│</text><text class="t" x="495" y="306" fill="rgb(205,213,235)" textLength="405" lengthAdjust="spacing" xml:space="preserve">with a second line to showcase alignment.    </text><text class="t" x="900" y="306" fill="rgb(189,189,191)" textLength="9" lengthAdjust="spacing" font-weight="700" xml:space="preserve">█</text><rect x="9" y="324" width="9" height="18" fill="rgb(0,128,128)"/><text class="t" x="9" y="324" fill="rgb(106,90,205)" textLength="9" lengthAdjust="spacing" xml:space="preserve">│</text><rect x="18" y="324" width="468" height="18" fill="rgb(0,128,128)"/><rect x="486" y="324" width="9" height="18" fill="rgb(0,128,128)"/><text class="t" x="486" y="324" fill="rgb(106,90,205)" textLength="9" lengthAdjust="spacing" xml:space="preserve">│</text><text class="t" x="900" y="324" fill="rgb(189,189,191)" textLength="9" lengthAdjust="spacing" font-weight="700" xml:space="preserve">█</text><rect x="9" y="342" width="9" height="18" fill="rgb(0,128,128)"/><text class="t" x="9" y="342" fill="rgb(106,90,205)" textLength="9" lengthAdjust="spacing" xml:space="preserve">│</text><rect x="18" y="342" width="468" height="18" fill="rgb(0,128,128)"/><rect x="486" y="342" width="9" height="18" fill="rgb(0,128,128)"/><text class="t" x="486" y="342" fill="rgb(106,90,205)" textLength="9" lengthAdjust="spacing" xml:space="preserve">│</text><text class="t" x="900" y="342" fill="rgb(189,189,191)" textLength="9" lengthAdjust="spacing" font-weight="700" xml:space="preserve">█</text><rect x="9" y="360" width="9" height="18" fill="rgb(0,128,128)"/><text class="t" x="9" y="360" fill="rgb(106,90,205)" textLength="9" lengthAdjust="spacing" xml:space="preserve">│</text><rect x="18" y="360" width="468" height="18" fill="rgb(0,128,128)"/><rect x="486" y="360" width="9" height="18" fill="rgb(0,128,128)"/><text class="t" x="486" y="360" fill="rgb(106,90,205)" textLength="9" lengthAdjust="spacing" xml:space="preserve">│</text><text class="t" x="900" y="360" fill="rgb(189,189,191)" textLength="9" lengthAdjust="spacing" font-weight="700" xml:space="preserve">█</text><rect x="9" y="378" width="9" height="18" fill="rgb(0,128,128)"/><text class="t" x="9" y="378" fill="rgb(106,90,205)" textLength="9" lengthAdjust="spacing" xml:space="preserve">│</text><rect x="18" y="378" width="468" height="18" fill="rgb(0,128,128)"/><rect x="486" y="378" width="9" height="18" fill="rgb(0,128,128)"/><text class="t" x="486" y="378" fill="rgb(106,90,205)" textLength="9" lengthAdjust="spacing" xml:space="preserve">│</text><text class="t" x="900" y="378" fill="rgb(189,189,191)" textLength="9" lengthAdjust="spacing" font-weight="700" xml:space="preserve">█</text><rect x="9" y="396" width="486" height="18" fill="rgb(0,128,128)"/><text class="t" x="9" y="396" fill="rgb(106,90,205)" textLength="486" lengthAdjust="spacing" xml:space="preserve">└Existing controls can be hosted directly as blocks.─┘</text><text class="t" x="900" y="396" fill="rgb(189,189,191)" textLength="9" lengthAdjust="spacing" font-weight="700" xml:space="preserve">█</text><text class="t" x="900" y="414" fill="rgb(189,189,191)" textLength="9" lengthAdjust="spacing" font-weight="700" xml:space="preserve">█</text><text class="t" x="18" y="432" fill="rgb(189,189,191)" textLength="180" lengthAdjust="spacing" xml:space="preserve">╭────────┬─────────╮</text><rect x="378" y="432" width="522" height="18" fill="rgb(112,128,144)"/><text class="t" x="378" y="432" fill="rgb(147,112,219)" textLength="522" lengthAdjust="spacing" xml:space="preserve">┌────────────────────────────────────────────────────────┐</text><text class="t" x="900" y="432" fill="rgb(189,189,191)" textLength="9" lengthAdjust="spacing" font-weight="700" xml:space="preserve">█</text><text class="t" x="18" y="450" fill="rgb(189,189,191)" textLength="9" lengthAdjust="spacing" xml:space="preserve">│</text><text class="t" x="36" y="450" fill="rgb(205,213,235)" textLength="45" lengthAdjust="spacing" font-weight="700" xml:space="preserve">Phase</text><text class="t" x="99" y="450" fill="rgb(189,189,191)" textLength="9" lengthAdjust="spacing" xml:space="preserve">│</text><text class="t" x="117" y="450" fill="rgb(205,213,235)" textLength="54" lengthAdjust="spacing" font-weight="700" xml:space="preserve">Status</text><text class="t" x="189" y="450" fill="rgb(189,189,191)" textLength="9" lengthAdjust="spacing" xml:space="preserve">│</text><rect x="378" y="450" width="9" height="18" fill="rgb(112,128,144)"/><text class="t" x="378" y="450" fill="rgb(147,112,219)" textLength="9" lengthAdjust="spacing" xml:space="preserve">│</text><rect x="387" y="450" width="504" height="18" fill="rgb(112,128,144)"/><rect x="891" y="450" width="9" height="18" fill="rgb(112,128,144)"/><text class="t" x="891" y="450" fill="rgb(147,112,219)" textLength="9" lengthAdjust="spacing" xml:space="preserve">│</text><text class="t" x="900" y="450" fill="rgb(189,189,191)" textLength="9" lengthAdjust="spacing" font-weight="700" xml:space="preserve">█</text><text class="t" x="18" y="468" fill="rgb(189,189,191)" textLength="180" lengthAdjust="spacing" xml:space="preserve">├────────┼─────────┤</text><rect x="378" y="468" width="9" height="18" fill="rgb(112,128,144)"/><text class="t" x="378" y="468" fill="rgb(147,112,219)" textLength="9" lengthAdjust="spacing" xml:space="preserve">│</text><rect x="387" y="468" width="504" height="18" fill="rgb(112,128,144)"/><rect x="891" y="468" width="9" height="18" fill="rgb(112,128,144)"/><text class="t" x="891" y="468" fill="rgb(147,112,219)" textLength="9" lengthAdjust="spacing" xml:space="preserve">│</text><text class="t" x="900" y="468" fill="rgb(189,189,191)" textLength="9" lengthAdjust="spacing" font-weight="700" xml:space="preserve">█</text><text class="t" x="18" y="486" fill="rgb(189,189,191)" textLength="9" lengthAdjust="spacing" xml:space="preserve">│</text><text class="t" x="27" y="486" fill="rgb(205,213,235)" textLength="72" lengthAdjust="spacing" xml:space="preserve"> Parse  </text><text class="t" x="99" y="486" fill="rgb(189,189,191)" textLength="9" lengthAdjust="spacing" xml:space="preserve">│</text><text class="t" x="108" y="486" fill="rgb(205,213,235)" textLength="81" lengthAdjust="spacing" xml:space="preserve"> Done    </text><text class="t" x="189" y="486" fill="rgb(189,189,191)" textLength="9" lengthAdjust="spacing" xml:space="preserve">│</text><rect x="378" y="486" width="9" height="18" fill="rgb(112,128,144)"/><text class="t" x="378" y="486" fill="rgb(147,112,219)" textLength="9" lengthAdjust="spacing" xml:space="preserve">│</text><rect x="387" y="486" width="504" height="18" fill="rgb(112,128,144)"/><rect x="891" y="486" width="9" height="18" fill="rgb(112,128,144)"/><text class="t" x="891" y="486" fill="rgb(147,112,219)" textLength="9" lengthAdjust="spacing" xml:space="preserve">│</text><text class="t" x="900" y="486" fill="rgb(189,189,191)" textLength="9" lengthAdjust="spacing" font-weight="700" xml:space="preserve">█</text><text class="t" x="18" y="504" fill="rgb(189,189,191)" textLength="180" lengthAdjust="spacing" xml:space="preserve">├────────┼─────────┤</text><rect x="378" y="504" width="9" height="18" fill="rgb(112,128,144)"/><text class="t" x="378" y="504" fill="rgb(147,112,219)" textLength="9" lengthAdjust="spacing" xml:space="preserve">│</text><rect x="387" y="504" width="504" height="18" fill="rgb(112,128,144)"/><rect x="891" y="504" width="9" height="18" fill="rgb(112,128,144)"/><text class="t" x="891" y="504" fill="rgb(147,112,219)" textLength="9" lengthAdjust="spacing" xml:space="preserve">│</text><text class="t" x="900" y="504" fill="rgb(189,189,191)" textLength="9" lengthAdjust="spacing" font-weight="700" xml:space="preserve">█</text><text class="t" x="18" y="522" fill="rgb(189,189,191)" textLength="9" lengthAdjust="spacing" xml:space="preserve">│</text><text class="t" x="27" y="522" fill="rgb(205,213,235)" textLength="72" lengthAdjust="spacing" xml:space="preserve"> Layout </text><text class="t" x="99" y="522" fill="rgb(189,189,191)" textLength="9" lengthAdjust="spacing" xml:space="preserve">│</text><text class="t" x="108" y="522" fill="rgb(205,213,235)" textLength="81" lengthAdjust="spacing" xml:space="preserve"> Done    </text><text class="t" x="189" y="522" fill="rgb(189,189,191)" textLength="9" lengthAdjust="spacing" xml:space="preserve">│</text><rect x="378" y="522" width="522" height="18" fill="rgb(112,128,144)"/><text class="t" x="378" y="522" fill="rgb(147,112,219)" textLength="522" lengthAdjust="spacing" xml:space="preserve">└────────────────────────────────────────────────────────┘</text><text class="t" x="900" y="522" fill="rgb(189,189,191)" textLength="9" lengthAdjust="spacing" font-weight="700" xml:space="preserve">█</text><text class="t" x="18" y="540" fill="rgb(189,189,191)" textLength="180" lengthAdjust="spacing" xml:space="preserve">├────────┼─────────┤</text><text class="t" x="900" y="540" fill="rgb(189,189,191)" textLength="9" lengthAdjust="spacing" font-weight="700" xml:space="preserve">█</text><rect x="9" y="558" width="9" height="18" fill="rgb(139,0,139)"/><text class="t" x="9" y="558" fill="rgb(106,90,205)" textLength="9" lengthAdjust="spacing" xml:space="preserve">┌</text><rect x="18" y="558" width="9" height="18" fill="rgb(139,0,139)"/><text class="t" x="18" y="558" fill="rgb(208,188,208)" textLength="9" lengthAdjust="spacing" xml:space="preserve">│</text><text class="t" x="27" y="558" fill="rgb(205,213,235)" textLength="72" lengthAdjust="spacing" xml:space="preserve"> Render </text><rect x="99" y="558" width="9" height="18" fill="rgb(139,0,139)"/><text class="t" x="99" y="558" fill="rgb(208,188,208)" textLength="9" lengthAdjust="spacing" xml:space="preserve">│</text><text class="t" x="108" y="558" fill="rgb(205,213,235)" textLength="81" lengthAdjust="spacing" xml:space="preserve"> Running </text><rect x="189" y="558" width="9" height="18" fill="rgb(139,0,139)"/><text class="t" x="189" y="558" fill="rgb(208,188,208)" textLength="9" lengthAdjust="spacing" xml:space="preserve">│</text><rect x="198" y="558" width="315" height="18" fill="rgb(139,0,139)"/><text class="t" x="198" y="558" fill="rgb(106,90,205)" textLength="315" lengthAdjust="spacing" xml:space="preserve">──────────────────────────────────┐</text><text class="t" x="900" y="558" fill="rgb(189,189,191)" textLength="9" lengthAdjust="spacing" font-weight="700" xml:space="preserve">█</text><rect x="9" y="576" width="9" height="18" fill="rgb(139,0,139)"/><text class="t" x="9" y="576" fill="rgb(106,90,205)" textLength="9" lengthAdjust="spacing" xml:space="preserve">│</text><rect x="18" y="576" width="180" height="18" fill="rgb(139,0,139)"/><text class="t" x="18" y="576" fill="rgb(208,188,208)" textLength="180" lengthAdjust="spacing" xml:space="preserve">╰────────┴─────────╯</text><rect x="198" y="576" width="306" height="18" fill="rgb(139,0,139)"/><rect x="504" y="576" width="9" height="18" fill="rgb(139,0,139)"/><text class="t" x="504" y="576" fill="rgb(106,90,205)" textLength="9" lengthAdjust="spacing" xml:space="preserve">│</text><text class="t" x="900" y="576" fill="rgb(189,189,191)" textLength="9" lengthAdjust="spacing" font-weight="700" xml:space="preserve">█</text><rect x="9" y="594" width="9" height="18" fill="rgb(139,0,139)"/><text class="t" x="9" y="594" fill="rgb(106,90,205)" textLength="9" lengthAdjust="spacing" xml:space="preserve">│</text><rect x="18" y="594" width="486" height="18" fill="rgb(139,0,139)"/><rect x="504" y="594" width="9" height="18" fill="rgb(139,0,139)"/><text class="t" x="504" y="594" fill="rgb(106,90,205)" textLength="9" lengthAdjust="spacing" xml:space="preserve">│</text><text class="t" x="900" y="594" fill="rgb(183,190,211)" textLength="9" lengthAdjust="spacing" opacity="0.75" xml:space="preserve">░</text><rect x="9" y="612" width="9" height="18" fill="rgb(139,0,139)"/><text class="t" x="9" y="612" fill="rgb(106,90,205)" textLength="9" lengthAdjust="spacing" xml:space="preserve">│</text><rect x="18" y="612" width="486" height="18" fill="rgb(139,0,139)"/><rect x="504" y="612" width="9" height="18" fill="rgb(139,0,139)"/><text class="t" x="504" y="612" fill="rgb(106,90,205)" textLength="9" lengthAdjust="spacing" xml:space="preserve">│</text><text class="t" x="900" y="612" fill="rgb(183,190,211)" textLength="9" lengthAdjust="spacing" opacity="0.75" xml:space="preserve">░</text><rect x="9" y="630" width="9" height="18" fill="rgb(139,0,139)"/><text class="t" x="9" y="630" fill="rgb(106,90,205)" textLength="9" lengthAdjust="spacing" xml:space="preserve">│</text><rect x="18" y="630" width="486" height="18" fill="rgb(139,0,139)"/><rect x="504" y="630" width="9" height="18" fill="rgb(139,0,139)"/><text class="t" x="504" y="630" fill="rgb(106,90,205)" textLength="9" lengthAdjust="spacing" xml:space="preserve">│</text><text class="t" x="900" y="630" fill="rgb(183,190,211)" textLength="9" lengthAdjust="spacing" opacity="0.75" xml:space="preserve">░</text><rect x="9" y="648" width="387" height="18" fill="rgb(139,0,139)"/><text class="t" x="9" y="648" fill="rgb(106,90,205)" textLength="387" lengthAdjust="spacing" xml:space="preserve">└──────────────────────────────────────────</text><rect x="396" y="648" width="117" height="18" fill="rgb(139,25,139)"/><text class="t" x="396" y="648" fill="rgb(205,213,235)" textLength="117" lengthAdjust="spacing" xml:space="preserve">public static</text><rect x="513" y="648" width="279" height="18" fill="rgb(38,43,60)"/><text class="t" x="513" y="648" fill="rgb(205,213,235)" textLength="279" lengthAdjust="spacing" xml:space="preserve"> void Render(DocumentFlow flow)</text><rect x="792" y="648" width="81" height="18" fill="rgb(34,40,58)"/><rect x="873" y="648" width="9" height="18" fill="rgb(30,36,56)"/><text class="t" x="873" y="648" fill="rgb(183,191,211)" textLength="9" lengthAdjust="spacing" opacity="0.75" xml:space="preserve">░</text><text class="t" x="900" y="648" fill="rgb(183,190,211)" textLength="9" lengthAdjust="spacing" opacity="0.75" xml:space="preserve">░</text><rect x="396" y="666" width="9" height="18" fill="rgb(38,43,60)"/><text class="t" x="396" y="666" fill="rgb(205,213,235)" textLength="9" lengthAdjust="spacing" xml:space="preserve">{</text><rect x="405" y="666" width="468" height="18" fill="rgb(34,40,58)"/><rect x="873" y="666" width="9" height="18" fill="rgb(30,36,56)"/><text class="t" x="873" y="666" fill="rgb(189,189,191)" textLength="9" lengthAdjust="spacing" font-weight="700" xml:space="preserve">█</text><text class="t" x="900" y="666" fill="rgb(183,190,211)" textLength="9" lengthAdjust="spacing" opacity="0.75" xml:space="preserve">░</text><rect x="9" y="684" width="387" height="18" fill="rgb(85,107,47)"/><text class="t" x="9" y="684" fill="rgb(106,90,205)" textLength="387" lengthAdjust="spacing" xml:space="preserve">┌──────────────────────────────────────────</text><rect x="396" y="684" width="90" height="18" fill="rgb(88,107,53)"/><text class="t" x="396" y="684" fill="rgb(205,213,235)" textLength="90" lengthAdjust="spacing" xml:space="preserve">    // ...</text><rect x="486" y="684" width="63" height="18" fill="rgb(87,107,51)"/><rect x="549" y="684" width="324" height="18" fill="rgb(34,40,58)"/><rect x="873" y="684" width="9" height="18" fill="rgb(30,36,56)"/><text class="t" x="873" y="684" fill="rgb(189,189,191)" textLength="9" lengthAdjust="spacing" font-weight="700" xml:space="preserve">█</text><text class="t" x="900" y="684" fill="rgb(183,190,211)" textLength="9" lengthAdjust="spacing" opacity="0.75" xml:space="preserve">░</text><rect x="9" y="702" width="9" height="18" fill="rgb(85,107,47)"/><text class="t" x="9" y="702" fill="rgb(106,90,205)" textLength="9" lengthAdjust="spacing" xml:space="preserve">│</text><rect x="18" y="702" width="378" height="18" fill="rgb(85,107,47)"/><rect x="396" y="702" width="9" height="18" fill="rgb(88,107,53)"/><text class="t" x="396" y="702" fill="rgb(205,213,235)" textLength="9" lengthAdjust="spacing" xml:space="preserve">}</text><rect x="405" y="702" width="144" height="18" fill="rgb(87,107,51)"/><rect x="549" y="702" width="324" height="18" fill="rgb(34,40,58)"/><rect x="873" y="702" width="9" height="18" fill="rgb(30,36,56)"/><text class="t" x="873" y="702" fill="rgb(189,189,191)" textLength="9" lengthAdjust="spacing" font-weight="700" xml:space="preserve">█</text><text class="t" x="900" y="702" fill="rgb(183,190,211)" textLength="9" lengthAdjust="spacing" opacity="0.75" xml:space="preserve">░</text><rect x="9" y="720" width="540" height="18" fill="rgb(85,107,47)"/><text class="t" x="9" y="720" fill="rgb(106,90,205)" textLength="540" lengthAdjust="spacing" xml:space="preserve">└──────────────────────────────────────────────────────────┘</text><text class="t" x="900" y="720" fill="rgb(183,190,211)" textLength="9" lengthAdjust="spacing" opacity="0.75" xml:space="preserve">░</text></svg>