<svg xmlns="http://www.w3.org/2000/svg" viewBox="0 0 900 396" width="900" height="396" shape-rendering="crispEdges"><style>.t{font-family:ui-monospace, SFMono-Regular, Menlo, Monaco, Consolas, "Liberation Mono", "Courier New", monospace;font-size:18px;dominant-baseline:text-before-edge;white-space:pre}</style><rect x="0" y="0" width="900" height="396" fill="rgb(25,32,54)"/><text class="t" x="0" y="0" fill="rgb(205,213,235)" font-weight="700" xml:space="preserve">Tones</text><rect x="0" y="36" width="18" height="18" fill="rgb(74,76,86)"/><rect x="18" y="36" width="63" height="18" fill="rgb(74,76,86)"/><text class="t" x="18" y="36" fill="rgb(205,213,235)" font-weight="700" xml:space="preserve">Default</text><rect x="81" y="36" width="18" height="18" fill="rgb(74,76,86)"/><rect x="108" y="36" width="18" height="18" fill="rgb(94,122,229)"/><rect x="126" y="36" width="63" height="18" fill="rgb(94,122,229)"/><text class="t" x="126" y="36" fill="rgb(25,32,54)" font-weight="700" xml:space="preserve">Primary</text><rect x="189" y="36" width="18" height="18" fill="rgb(94,122,229)"/><rect x="216" y="36" width="18" height="18" fill="rgb(67,152,90)"/><rect x="234" y="36" width="63" height="18" fill="rgb(67,152,90)"/><text class="t" x="234" y="36" fill="rgb(25,32,54)" font-weight="700" xml:space="preserve">Success</text><rect x="297" y="36" width="18" height="18" fill="rgb(67,152,90)"/><rect x="324" y="36" width="18" height="18" fill="rgb(158,128,38)"/><rect x="342" y="36" width="63" height="18" fill="rgb(158,128,38)"/><text class="t" x="342" y="36" fill="rgb(25,32,54)" font-weight="700" xml:space="preserve">Warning</text><rect x="405" y="36" width="18" height="18" fill="rgb(158,128,38)"/><rect x="432" y="36" width="18" height="18" fill="rgb(214,83,66)"/><rect x="450" y="36" width="45" height="18" fill="rgb(214,83,66)"/><text class="t" x="450" y="36" fill="rgb(25,32,54)" font-weight="700" xml:space="preserve">Error</text><rect x="495" y="36" width="18" height="18" fill="rgb(214,83,66)"/><text class="t" x="0" y="72" fill="rgb(189,189,191)" xml:space="preserve">────────────────────────────────────────────────────────────────────────────────────────────────────</text><text class="t" x="0" y="108" fill="rgb(205,213,235)" font-weight="700" xml:space="preserve">Enabled / Disabled</text><text class="t" x="0" y="144" fill="rgb(205,213,235)" font-weight="700" xml:space="preserve">☑</text><text class="t" x="9" y="144" fill="rgb(205,213,235)" xml:space="preserve">  Enabled                                                                                          </text><rect x="0" y="180" width="18" height="18" fill="rgb(74,76,86)"/><rect x="18" y="180" width="72" height="18" fill="rgb(74,76,86)"/><text class="t" x="18" y="180" fill="rgb(205,213,235)" font-weight="700" xml:space="preserve">Click me</text><rect x="90" y="180" width="18" height="18" fill="rgb(74,76,86)"/><text class="t" x="0" y="216" fill="rgb(189,189,191)" xml:space="preserve">────────────────────────────────────────────────────────────────────────────────────────────────────</text><text class="t" x="0" y="252" fill="rgb(205,213,235)" font-weight="700" xml:space="preserve">Borders (from style)</text><text class="t" x="0" y="288" fill="rgb(205,213,235)" opacity="0.75" xml:space="preserve">Borders are off by default, but can be enabled via ButtonStyle.</text><rect x="0" y="342" width="126" height="18" fill="rgb(74,76,86)"/><rect x="135" y="342" width="216" height="18" fill="rgb(94,122,229)"/><rect x="0" y="360" width="18" height="18" fill="rgb(74,76,86)"/><rect x="18" y="360" width="9" height="18" fill="rgb(74,76,86)"/><rect x="27" y="360" width="72" height="18" fill="rgb(74,76,86)"/><text class="t" x="27" y="360" fill="rgb(205,213,235)" font-weight="700" xml:space="preserve">Bordered</text><rect x="99" y="360" width="9" height="18" fill="rgb(74,76,86)"/><rect x="108" y="360" width="18" height="18" fill="rgb(74,76,86)"/><rect x="135" y="360" width="18" height="18" fill="rgb(94,122,229)"/><rect x="153" y="360" width="9" height="18" fill="rgb(94,122,229)"/><rect x="162" y="360" width="162" height="18" fill="rgb(94,122,229)"/><text class="t" x="162" y="360" fill="rgb(25,32,54)" font-weight="700" xml:space="preserve">Bordered + Primary</text><rect x="324" y="360" width="9" height="18" fill="rgb(94,122,229)"/><rect x="333" y="360" width="18" height="18" fill="rgb(94,122,229)"/><rect x="0" y="378" width="126" height="18" fill="rgb(74,76,86)"/><text class="t" x="0" y="378" fill="rgb(193,194,195)" xml:space="preserve">▁▁▁▁▁▁▁▁▁▁▁▁▁▁</text><rect x="135" y="378" width="216" height="18" fill="rgb(94,122,229)"/><text class="t" x="135" y="378" fill="rgb(197,203,242)" xml:space="preserve">▁▁▁▁▁▁▁▁▁▁▁▁▁▁▁▁▁▁▁▁▁▁▁▁</text></svg>